<svg xmlns="http://www.w3.org/2000/svg" width="2542.474" height="876.276" viewBox="0 0 2542.474 876.276">
  <g id="Group_1" data-name="Group 1" transform="translate(-484.536 -705.012)">
    <path id="Path_1" data-name="Path 1" d="M-756.148-233.261q0,106.35-63.1,169.451-70.9,75.154-186.467,75.154-110.6,0-187.176-76.572t-76.572-188.594q0-112.022,76.572-188.594t187.176-76.572q56.011,0,105.641,19.852t81.535,56.011l-46.794,46.794q-23.4-28.36-60.62-44.312t-79.763-15.953q-82.953,0-140.382,57.429-56.72,58.138-56.72,145.345t56.72,145.345q57.429,57.429,140.382,57.429,75.863,0,126.2-42.54t58.138-116.985h-184.34v-60.974h246.023A217.776,217.776,0,0,1-756.148-233.261Zm370.807-274.383h84.371v2.836L-489.565-287.145-288.208-2.836V0h-80.117l-165.2-236.806-77.99,90.043V0H-676.74V-507.644h65.228v261.621h2.836ZM349.892.709,298.844,34.032,264.1-17.725Q204.547,11.344,142.155,11.344q-110.6,0-185.758-76.572-75.154-75.863-75.154-188.594T-43.6-442.416q75.154-76.572,185.758-76.572t185.758,77.281q75.154,75.863,75.154,187.885,0,59.556-23.043,111.313a264.847,264.847,0,0,1-65.583,90.043ZM142.155-51.048A192.047,192.047,0,0,0,227.944-70.9l-59.556-89.334,51.048-34.741,58.847,88.625q58.138-56.011,58.138-147.472,0-88.625-56.011-145.345Q225.107-456.6,142.155-456.6T3.191-399.167q-55.3,57.429-55.3,145.345t55.3,145.345Q59.2-51.048,142.155-51.048ZM773.874,0H711.482V-48.212h-2.836q-14.889,25.524-45.731,42.54T598.751,11.344q-63.81,0-98.2-36.514T466.168-129.038V-347.41H531.4v214.118q2.127,85.08,85.789,85.08,38.995,0,65.228-31.551t26.233-75.509V-347.41h65.228ZM937.653-467.231a44.422,44.422,0,0,1-13.471,32.614,44.422,44.422,0,0,1-32.614,13.471,44.422,44.422,0,0,1-32.614-13.471,44.422,44.422,0,0,1-13.471-32.614,44.422,44.422,0,0,1,13.471-32.614,44.422,44.422,0,0,1,32.614-13.471,44.422,44.422,0,0,1,32.614,13.471A44.422,44.422,0,0,1,937.653-467.231ZM924.182-347.41V0H858.954V-347.41ZM1273.01,0H992.246V-56.72l197.811-231.134H997.918V-347.41h272.256v56.72L1072.363-59.556H1273.01Z" transform="translate(1754 1224)" fill="#222"/>
    <path id="Path_2" data-name="Path 2" d="M-625.378,0h-24.656V-191.888h24.656Zm34.3-131.32h23.584V-113.1h1.072q5.628-9.648,17.286-16.08a49.548,49.548,0,0,1,24.254-6.432q24.12,0,37.118,13.8t13,39.262V0h-24.656V-80.936q-.8-32.16-32.428-32.16-14.74,0-24.656,11.926t-9.916,28.542V0h-24.656ZM-400.526,2.144q-16.08,0-26.666-9.916t-10.854-27.6v-73.432h-23.048V-131.32h23.048v-40.2h24.656v40.2h32.16v22.512h-32.16v65.392q0,13.132,5.092,17.822a16.561,16.561,0,0,0,11.524,4.69,24.791,24.791,0,0,0,5.762-.67,29.886,29.886,0,0,0,5.226-1.742l7.772,21.976A66.213,66.213,0,0,1-400.526,2.144Zm100.5,2.144q-28.944,0-47.7-19.832T-366.49-65.66q0-30.016,18.224-49.982t46.632-19.966q29.212,0,46.5,18.894t17.286,52.93l-.268,2.68H-341.3q.536,19.3,12.864,31.088a41.157,41.157,0,0,0,29.48,11.792q23.584,0,36.984-23.584l21.976,10.72a65.5,65.5,0,0,1-24.522,26Q-280.194,4.288-300.026,4.288Zm-39.4-85.76h75.308a32.7,32.7,0,0,0-11.122-22.646q-10.05-8.978-26.934-8.978a35.74,35.74,0,0,0-23.986,8.576Q-336.206-95.944-339.422-81.472ZM-190.682,0h-24.656V-131.32h23.584v21.44h1.072q3.752-10.452,15.41-17.822t22.914-7.37q10.72,0,18.224,3.216l-7.5,23.852q-4.556-1.876-14.472-1.876-13.936,0-24.254,11.256A37.646,37.646,0,0,0-190.682-72.36ZM-30.15,0H-54.806V-191.888H-30.15v82.276H65.794v-82.276H90.45V0H65.794V-86.564H-30.15Zm147.4-65.66q0-30.284,19.028-50.116,19.3-19.832,48.508-19.832t48.24,19.832q19.3,19.832,19.3,50.116,0,30.552-19.3,50.116Q214,4.288,184.786,4.288T136.278-15.544Q117.25-35.376,117.25-65.66Zm24.656,0q0,21.172,12.328,34.3a40.216,40.216,0,0,0,30.552,13.132,40.216,40.216,0,0,0,30.552-13.132q12.328-13.132,12.328-34.3,0-20.9-12.328-34.036-12.6-13.4-30.552-13.4T154.234-99.7Q141.906-86.564,141.906-65.66ZM388.734,0H365.15V-18.224h-1.072q-5.628,9.648-17.286,16.08a49.548,49.548,0,0,1-24.254,6.432q-24.12,0-37.118-13.8t-13-39.262V-131.32h24.656v80.936q.8,32.16,32.428,32.16,14.74,0,24.656-11.926t9.916-28.542V-131.32h24.656ZM517.91-36.448Q517.91-19.3,502.9-7.5T465.114,4.288q-19.832,0-34.84-10.318a56.888,56.888,0,0,1-21.44-27.2l21.976-9.38a40.789,40.789,0,0,0,14.07,18.358,34.2,34.2,0,0,0,20.234,6.566q11.792,0,19.7-5.092t7.906-12.06q0-12.6-19.3-18.492L450.91-58.96q-38.324-9.648-38.324-36.984,0-17.956,14.606-28.81t37.386-10.854a60.763,60.763,0,0,1,31.49,8.308q14.07,8.308,19.7,22.244L493.79-95.944a27.668,27.668,0,0,0-12.194-13,38.24,38.24,0,0,0-18.894-4.69,31.687,31.687,0,0,0-17.286,4.824q-7.638,4.824-7.638,11.792,0,11.256,21.172,16.08l19.832,5.092Q517.91-66.2,517.91-36.448ZM599.65,4.288q-28.944,0-47.7-19.832T533.186-65.66q0-30.016,18.224-49.982t46.632-19.966q29.212,0,46.5,18.894t17.286,52.93l-.268,2.68H558.378q.536,19.3,12.864,31.088a41.157,41.157,0,0,0,29.48,11.792q23.584,0,36.984-23.584l21.976,10.72a65.5,65.5,0,0,1-24.522,26Q619.482,4.288,599.65,4.288Zm-39.4-85.76h75.308a32.7,32.7,0,0,0-11.122-22.646q-10.05-8.978-26.934-8.978a35.74,35.74,0,0,0-23.986,8.576Q563.47-95.944,560.254-81.472Z" transform="translate(1754 1577)" fill="#222"/>
  </g>
</svg>
